# xmcd CD database file
#
# Track frame offsets:
#	150
#	12929
#	28057
#	41862
#	55155
#
# Disc length: 930 seconds
#
# Revision: 0
# Processed by: cddbd v1.5.2PL0 Copyright (c) Steve Scherf et al.
# Submitted via: jetAudio 7
#
DISCID=3b03a005
DTITLE=Zumzera and Guilherme - Terromoto
DYEAR=1900
DGENRE=Country
TTITLE0=100zão
TTITLE1=Paranazão
TTITLE2=Temos que confiar
TTITLE3=Terremoto
TTITLE4=Velho Jack
EXTD=
EXTT0=
EXTT1=
EXTT2=Versão Suspicious Minds
EXTT3=
EXTT4=
PLAYORDER=
